<svg xmlns="http://www.w3.org/2000/svg" width="87.75" height="66.368" viewBox="0 0 87.75 66.368">
    <g transform="translate(-10 -129.4)">
        <path
            d="M95.192,301.945h50.29l10.035-48.207L134.58,279.156,121.451,237.7l-13.559,41.456L86.7,254.337Z"
            transform="translate(-66.76 -106.177)" />
        <path d="M443.4,137.8a8.407,8.407,0,1,0,2.462-5.935A8.486,8.486,0,0,0,443.4,137.8Z"
            transform="translate(-397.238)" />
        <path
            d="M10,302.9a8.394,8.394,0,0,0,14.333,5.935,8.394,8.394,0,1,0-11.871-11.871A8.486,8.486,0,0,0,10,302.9Z"
            transform="translate(0 -151.718)" />
        <path d="M860.4,296a8.407,8.407,0,1,0,2.462-5.935A8.486,8.486,0,0,0,860.4,296Z"
            transform="translate(-779.445 -145.377)" />
    </g>
</svg>