<svg xmlns="http://www.w3.org/2000/svg" width="152.528" height="177.1" viewBox="0 0 152.528 177.1">
    <defs>
        <style>.a{fill:#2e95d2;}.b{fill:#40a3db;}.c{fill:#e6e7e8;}.d{fill:#414042;}.e{fill:#1b86c8;}</style>
    </defs>
    <g transform="translate(-265.259 -332.374)">
        <path class="a"
            d="M407.5,369.1s-6.8-7.4-22.8-6.7-33.1-9-41.5-21.5c-12.5-18.5-73.1-6.7-61.7,33.5s-12.7,57-16.1,92.5,59.7,59,74.4,28.2,26.9-67.7,52.6-79.8C418.2,403.3,426.3,390.6,407.5,369.1Z" />
        <path class="b"
            d="M325.6,395.6c-27.9,0-38.6-1.2-43.6-19.2,10.1,38.9-13.3,55.7-16.6,90.6a28.607,28.607,0,0,0,.4,8.3c3.7-2.9,9.4-6,18.4-8.7,24.6-7.4,42.4-9.4,57.3-26.8S354.4,395.6,325.6,395.6Z" />
        <circle class="c" cx="11.7" cy="11.7" r="11.7" transform="translate(318.9 406)" />
        <circle class="d" cx="7.8" cy="7.8" r="7.8" transform="translate(322.8 409.9)" />
        <path class="b"
            d="M345.9,376.4c-.2,11.8,23.5,24.1,43.5-13.9-1.5-.1-3-.1-4.7-.1-16,.7-33.1-9-41.5-21.5C343.1,341,346.1,364.6,345.9,376.4Z" />
        <path class="e"
            d="M392.4,415.4c23.9-11.2,32.5-22.9,18.8-41.6,1.2,8.2,1.1,17.6-3.9,23.1-10.1,11.4-30.2,6.8-45.6,32.6s-24.8,57.9-42.9,65c-10,3.9-26.4,3.5-39.2,2.3,18.7,15.3,50.2,19,60.1-1.6C354.5,464.3,366.6,427.4,392.4,415.4Z" />
    </g>
</svg>