<svg xmlns="http://www.w3.org/2000/svg" width="129.516" height="141.285" viewBox="0 0 129.516 141.285"><defs><style>.a{fill:#f15d4f;}.b{fill:#f47e69;}.c{fill:#e6e7e8;}.d{fill:#414042;}.e{fill:#db5447;}</style></defs><g transform="translate(-271.352 -85.803)"><path class="a" d="M390.1,155s-23.5-12.2-34.9-34.3S325,81.9,302.9,86.6s-33.5,44.5-19.4,44.5,12.1,12.2,12.1,12.2-28.1,24.5-23.8,47.1c4.3,22.7,32.4,42.9,58.9,34.9C357.2,217.5,427.6,178.3,390.1,155Z"/><path class="b" d="M343.9,193.8c41.2-16.8-4.3-43.6-19.5-53.6-15.2-10.1-36.8-8.6-36.8-8.6h0c9.6,2.1,8,11.8,8,11.8a97.788,97.788,0,0,0-16.3,19.2h0C291.2,162.3,302.7,210.5,343.9,193.8Z"/><circle class="c" cx="11.7" cy="11.7" r="11.7" transform="translate(324.4 160.6)"/><circle class="d" cx="7.8" cy="7.8" r="7.8" transform="translate(328.3 164.5)"/><path class="e" d="M390.1,155a95.2,95.2,0,0,1-21.5-16.4s9.2,14.2,16.6,21.9,12.4,17.5-24.4,41.9c-36.9,24.4-76.5,16.1-88-8.4,6.4,21.1,32.9,38.9,58,31.3C357.2,217.5,427.6,178.3,390.1,155Z"/></g></svg>