<svg xmlns="http://www.w3.org/2000/svg" width="110.7" height="98.247" viewBox="0 0 110.7 98.247"><defs><style>.a{fill:#955ba5;}.b{fill:#e6e7e8;}.c{fill:#414042;}.d{fill:#884b9d;}</style></defs><g transform="translate(-674.682 -107.376)"><path class="a" d="M675.5,137.1s3.4-18.8,28.8-25.5,71.1-6.7,77.1,9.4,8.6,77.1-17.5,83.8-32.1-29.5-41.5-36.9C713.1,160.6,668.1,167.3,675.5,137.1Z"/><circle class="b" cx="11.7" cy="11.7" r="11.7" transform="translate(740.5 133.1)"/><circle class="c" cx="7.8" cy="7.8" r="7.8" transform="translate(744.4 137)"/><path class="d" d="M783.5,174.9c-10.1,17.8-25.8,21.5-31.3,6.4-7.4-20.1-18.7-27.5-48.2-28.8-14.5-.6-23.6-4.4-29.3-8.1,1.3,21.7,39.2,16.8,47.7,23.5,9.4,7.4,15.4,43.6,41.5,36.9C774.9,202,780.8,189.6,783.5,174.9Z"/></g></svg>