<svg xmlns="http://www.w3.org/2000/svg" width="153.69" height="145.178" viewBox="0 0 153.69 145.178"><defs><style>.a{fill:#42bfb9;}.b{fill:#5ec5be;}.c{fill:#e6e7e8;}.d{fill:#414042;}.e{fill:#02aba0;}</style></defs><g transform="translate(-51.828 -352.58)"><path class="a" d="M201.1,377.4s-7.7-22.1-28.6-24.5-57.1,9.7-82.9,3.8c-25.9-5.9-41.2,9-37,61.2s5.8,73.4,37.7,78.9S175,480.3,193,453.4,205.6,386,201.1,377.4Z"/><path class="b" d="M111.9,449.4c44.6,3.5,47.1-43.9,52-62,2.3-8.6-2.6-22.3-8.4-34.2-20.4,2-46.2,8-66,3.5a53.4,53.4,0,0,0-5.3-.9c2.8,7.1,4.2,17.1,1.7,30.9C79.1,423.5,67.3,446,111.9,449.4Z"/><circle class="c" cx="11.7" cy="11.7" r="11.7" transform="translate(98 402.1)"/><circle class="d" cx="7.8" cy="7.8" r="7.8" transform="translate(101.9 406)"/><path class="e" d="M52.5,418c4.1,52.1,5.8,73.4,37.7,78.9,21.8,3.8,53.4-5.4,76.9-20.1,0,0-62.3,15.2-86.5-2.7-20.8-15.3-26.5-82.9-16.3-113.4C54.6,368.7,50,386.6,52.5,418Z"/></g></svg>