<svg xmlns="http://www.w3.org/2000/svg" width="126.038" height="102.029" viewBox="0 0 126.038 102.029"><defs><style>.a{fill:#f26522;}.b{fill:#f7941e;}.c{fill:#e6e7e8;}.d{fill:#414042;}.e{fill:#de5426;}</style></defs><g transform="translate(-476.416 -105.437)"><path class="a" d="M549.2,107.4c-10.7,5.3-33.1,15.5-56.8,20.5a18.752,18.752,0,0,0-14.8,15.2,71.985,71.985,0,0,0-.6,22,18.7,18.7,0,0,0,17.6,16.1c13.7.8,36.5,4.8,55.2,21.6a18.679,18.679,0,0,0,20.9,2.6A81.673,81.673,0,0,0,598.4,183a18.775,18.775,0,0,0,.8-22.2,57.622,57.622,0,0,1-10.3-28.7,18.528,18.528,0,0,0-5.4-11.8,69.3,69.3,0,0,0-17.6-13A19.183,19.183,0,0,0,549.2,107.4Z"/><path class="b" d="M570.3,181.5c27.7-10.8,1.9-42.2,13.1-61a69.3,69.3,0,0,0-17.6-13,18.639,18.639,0,0,0-16.6,0c-10.7,5.3-33.1,15.5-56.8,20.5a19.775,19.775,0,0,0-5,1.8h0s22.8-4.7,37.6,20.5C539.6,175.4,542.6,192.2,570.3,181.5Z"/><circle class="c" cx="11.7" cy="11.7" r="11.7" transform="translate(550.8 146.3)"/><circle class="d" cx="7.8" cy="7.8" r="7.8" transform="translate(554.7 150.2)"/><path class="e" d="M598.4,183.1a19.133,19.133,0,0,0,4-10.8c-8,7.9-22,20.7-32.1,25.2-14.9,6.7-26.6-12.1-56.1-20.8-14.2-4.2-24.9-3.2-32.1-1.1a18.4,18.4,0,0,0,12.5,5.6c13.7.8,36.5,4.8,55.2,21.6a18.679,18.679,0,0,0,20.9,2.6A80.044,80.044,0,0,0,598.4,183.1Z"/></g></svg>