<svg xmlns="http://www.w3.org/2000/svg" width="113.957" height="176.059" viewBox="0 0 113.957 176.059"><defs><style>.a{fill:#4eba6e;}.b{fill:#75c485;}.c{fill:#e6e7e8;}.d{fill:#414042;}</style></defs><g transform="translate(-485.145 -331.038)"><path class="a" d="M495,499.4s-21.7-33-.7-87.4,67.6-85.6,77.8-80.4-4,38.1,14.7,56.7,13.7,14.9.8,48.1c-12.9,33.3-10.7,53.8-41.8,61.7S505.5,513,495,499.4Z"/><path class="b" d="M563.9,367.1c-17.1,20-61.9,34.3-52,72.6s38,49.2,48.4,18.7c10.3-30.5,24.4-64.8,33.2-63.4-1.7-1.9-3.9-4.1-6.6-6.7-12.8-12.7-10.2-32.1-10.6-44.8C575.7,348.5,573,356.4,563.9,367.1Z"/><circle class="c" cx="11.7" cy="11.7" r="11.7" transform="translate(527.1 420.2)"/><circle class="d" cx="7.8" cy="7.8" r="7.8" transform="translate(531 424.1)"/></g></svg>