<svg xmlns="http://www.w3.org/2000/svg" width="151.646" height="96.848" viewBox="0 0 151.646 96.848">
    <defs>
        <style>.a{fill:#d95d98;}.b{fill:#f05d96;}.c{fill:#e6e7e8;}.d{fill:#414042;}.e{fill:#db3d78;}</style>
    </defs>
    <g transform="translate(-44.676 -108.141)">
        <path class="a"
            d="M193.8,128.9s-6-3.4-9.4-12.7-18.1-10.7-26.8-3.4c-8.7,7.4-49.6,8.7-66.4,16.1S43.7,139,44.7,157.7s16.4,21.5,19,15.4c2.7-6,35,5.4,44,12.1S144.2,209.3,167,204s10.1-21.5,12.7-29.5C182.5,166.4,203.2,141.6,193.8,128.9Z" />
        <path class="b"
            d="M151.8,135.1c-17.8-9.1-48.2-3.5-70.4-2.6-16.7,5.2-37.4,9.8-36.6,25.3.9,18.8,16.4,21.5,19,15.4,0,0-5.8-9.1,11.5-16.6s22.7,14.6,50.2,21.3S178.9,148.9,151.8,135.1Z" />
        <circle class="c" cx="11.7" cy="11.7" r="11.7" transform="translate(128.4 144.8)" />
        <circle class="d" cx="7.8" cy="7.8" r="7.8" transform="translate(132.3 148.7)" />
        <path class="e"
            d="M179.8,181.2a15.085,15.085,0,0,1,0-6.7c2.7-8,23.5-32.8,14.1-45.6,0,0-6-3.4-9.4-12.7-2.1-5.8-8.5-8.5-15.2-8,18.9,3.4,8.1,27.7,3.1,36.5-13.4,23.5,7.4,36.5,7.4,36.5Z" />
    </g>
</svg>