<svg xmlns="http://www.w3.org/2000/svg" width="134.257" height="110.92" viewBox="0 0 134.257 110.92">
    <defs>
        <style>
            .a{fill:#f8be37;}.b{fill:#ffce4b;}.c{fill:#1b86c8;}.d{fill:#e6e7e8;}.e{fill:#414042;}.f{fill:#f8b32b;}</style>
    </defs>
    <g transform="translate(-662.95 -365.5)">
        <path class="a"
            d="M766,473s24.1-16.1,29.5-44.9-3.4-49.6-10.7-51.6c-7.4-2-22.1,6-27.5,3.4-5.4-2.7-8.9-14.3-27.7-14.3S699,393,692.9,395.5c-6,2.5-27.8-7.9-29.7,0-1.6,6.9,3.9,52.4,33.4,66.9a11.814,11.814,0,0,0,15.8-5.3c2.5-5,7.3-10.2,16.2-10.2C745.9,446.7,725.8,488.4,766,473Z" />
        <path class="b"
            d="M757.3,379.8c-5.4-2.7-8.9-14.3-27.7-14.3s-30.6,27.4-36.7,29.9a12.386,12.386,0,0,1-5.6.2c2.5.4,11.9,2.7,22,13.6,11.7,12.7,17.8,24.6,34.8,19.9,25-6.9-1.6-39.2,17.2-48,.7-.3,1.3-.7,1.9-1C760.8,380.4,758.7,380.5,757.3,379.8Z" />
        <path class="c" d="M686.7,395.5Z" />
        <circle class="d" cx="11.7" cy="11.7" r="11.7" transform="translate(724.7 392.5)" />
        <circle class="e" cx="7.8" cy="7.8" r="7.8" transform="translate(728.6 396.4)" />
        <path class="f"
            d="M790.6,381.7c.8,16.9.3,45.8-11.4,59.6-17.1,20.1-27.9,30.3-33.2,17.9-5.3-12.5-11.2-27.2-28.7-8.4a17.026,17.026,0,0,1,11.4-4c17.3,0-2.9,41.6,37.4,26.2,0,0,24.1-16.1,29.5-44.9C799.5,406.8,795.7,389.9,790.6,381.7Z" />
    </g>
</svg>