<svg version="1.1" id="Layer_1" xmlns="http://www.w3.org/2000/svg" xmlns:xlink="http://www.w3.org/1999/xlink" x="0px" y="0px"
	 width="100%" viewBox="0 0 1920 1080" enable-background="new 0 0 1920 1080" xml:space="preserve">
<path fill="#D76B1E" opacity="1.000000" stroke="none" 
	d="
M335.000000,0.999999 
	C355.020905,1.000000 375.041779,1.000000 395.630829,1.329473 
	C396.696869,2.518188 397.121307,3.430959 397.703156,4.228979 
	C430.837524,49.675709 463.988159,95.110558 497.129974,140.551865 
	C520.172119,172.145370 543.174500,203.767929 566.265747,235.325516 
	C570.672180,241.347519 575.410828,247.126404 580.185303,253.290405 
	C582.017334,255.209549 583.561096,256.970917 585.318848,258.483551 
	C598.432068,269.767853 611.640137,280.942169 624.717285,292.267822 
	C643.453186,308.494263 662.069580,324.858826 680.798706,341.093109 
	C702.292664,359.723877 723.812378,378.325287 745.419189,396.824738 
	C750.064697,400.802124 755.130310,404.288696 760.073608,408.308044 
	C760.420654,409.405548 760.696533,410.196381 761.064392,411.342957 
	C766.940430,426.410797 772.692017,441.135681 778.514038,455.832672 
	C806.707275,527.002502 834.943787,598.155151 863.108826,669.336121 
	C870.821106,688.827271 878.338989,708.395386 885.528320,727.930542 
	C883.299500,727.683960 881.471985,727.519836 879.679626,727.173950 
	C810.980164,713.917542 742.282104,700.653931 673.587830,687.370728 
	C618.795166,676.775513 564.012756,666.127197 509.206329,655.603638 
	C505.536713,654.899048 501.702820,655.049927 497.614197,654.819885 
	C496.841064,654.860107 496.399078,654.883240 495.683441,654.823364 
	C493.715179,655.350769 491.927216,655.780029 490.339935,656.598511 
	C466.806549,668.734436 443.330139,680.981201 419.778992,693.082397 
	C389.845520,708.463074 359.847382,723.717834 329.896667,739.064880 
	C319.371460,744.458130 308.719055,749.644470 298.493073,755.561829 
	C293.833435,758.258179 289.920044,758.641541 284.912659,756.898682 
	C249.350754,744.521301 213.689331,732.430359 178.088913,720.163208 
	C157.455521,713.053345 136.899338,705.719360 116.265564,698.610596 
	C99.893684,692.970154 83.456711,687.518616 67.031448,681.981567 
	C67.014267,681.979980 66.983223,681.995117 67.081970,681.659607 
	C79.694908,660.531189 92.146454,639.700317 104.735596,618.952881 
	C136.484406,566.629517 168.295197,514.343750 200.241516,461.752899 
	C200.571579,460.601379 200.741272,459.739868 200.933594,458.431274 
	C201.716415,442.692230 202.416016,427.396881 203.251312,412.108948 
	C204.440323,390.347870 205.800156,368.595978 206.951355,346.833008 
	C207.795227,330.880127 208.354645,314.912384 209.159607,298.957275 
	C210.400223,274.366150 211.743973,249.780228 213.041122,225.191956 
	C213.759949,211.566620 214.509567,197.942780 215.179794,184.315048 
	C216.152206,164.542953 217.065369,144.767944 217.999542,124.744553 
	C217.995270,124.494911 217.981033,123.995773 218.305939,123.892914 
	C219.557877,123.115013 220.617950,122.565750 221.392563,121.746559 
	C241.931900,100.024712 262.381836,78.218040 282.975708,56.548161 
	C299.341644,39.327114 315.890747,22.280205 332.308472,5.108159 
	C333.420929,3.944593 334.112610,2.378748 335.000000,0.999999 
z"/>
<path fill="#CB651C" opacity="1.000000" stroke="none" 
	d="
M1921.000000,510.000000 
	C1921.000000,546.354248 1921.000000,582.708435 1920.667969,619.631287 
	C1914.220215,625.115784 1908.104370,630.031616 1901.659424,635.053589 
	C1899.764160,637.014771 1897.821045,638.666199 1896.691528,640.757141 
	C1887.827026,657.169373 1879.176514,673.696960 1870.350952,690.130493 
	C1842.220337,742.511658 1814.060181,794.876953 1785.877441,847.230103 
	C1765.276245,885.499573 1744.621216,923.740112 1723.624512,961.953979 
	C1721.450439,961.124207 1719.524414,960.528198 1717.852051,959.513855 
	C1700.796143,949.168640 1683.788086,938.744995 1666.754272,928.363403 
	C1636.943359,910.194519 1607.152832,891.992004 1577.294800,873.900879 
	C1563.938599,865.808289 1550.439819,857.950989 1536.821777,849.879028 
	C1536.104370,849.808167 1535.571045,849.845215 1534.657593,849.964661 
	C1444.212891,875.953125 1354.152954,901.874817 1264.079834,927.751343 
	C1247.128174,932.621338 1230.125000,937.311890 1212.873291,941.875366 
	C1210.112549,938.342346 1207.473022,935.120728 1205.158203,931.680603 
	C1175.522095,887.639282 1145.941406,843.560608 1116.328247,799.503845 
	C1091.638184,762.771545 1066.932861,726.049438 1042.189575,689.353027 
	C1041.099976,687.737000 1039.562988,686.422668 1038.185791,684.715759 
	C1038.105957,684.295593 1038.074463,684.127441 1038.052734,683.494446 
	C1037.734863,672.725769 1037.425171,662.421326 1037.075928,652.118164 
	C1036.428101,633.008606 1035.742920,613.900269 1035.098999,594.790527 
	C1034.046387,563.547668 1033.014282,532.304016 1031.990356,500.784027 
	C1032.018799,500.322876 1032.030518,500.138428 1032.493286,499.967346 
	C1040.898682,500.655823 1048.858521,501.269623 1056.805908,502.018188 
	C1075.850220,503.812042 1094.891846,505.637573 1113.928589,507.510040 
	C1132.139404,509.301239 1150.339844,511.199188 1168.550537,512.991882 
	C1184.441528,514.556152 1200.336548,516.083679 1216.237305,517.544434 
	C1229.485596,518.761475 1242.744751,519.858154 1256.332275,521.006714 
	C1257.109863,520.999878 1257.554321,520.994385 1258.425537,520.985107 
	C1259.847290,520.898193 1260.848999,520.862793 1261.836304,520.724915 
	C1289.855469,516.812744 1317.873291,512.892151 1345.890869,508.968811 
	C1386.272461,503.314148 1426.653320,497.656158 1467.496338,491.998901 
	C1473.095459,492.313690 1478.229614,492.698547 1483.370483,492.932800 
	C1506.268921,493.976440 1529.166870,495.038391 1552.069824,495.974091 
	C1570.994019,496.747162 1589.925659,497.333893 1608.852539,498.040985 
	C1616.986450,498.344818 1625.119629,498.691528 1633.248413,499.109833 
	C1657.958984,500.381470 1682.661499,501.823608 1707.378296,502.955688 
	C1726.629761,503.837402 1745.898926,504.331116 1765.157471,505.069733 
	C1767.129395,505.145416 1769.082275,505.718079 1770.988525,506.415039 
	C1770.423706,507.989899 1770.010620,509.261169 1769.390991,510.422272 
	C1752.941284,541.252747 1736.468628,572.070923 1720.005127,602.894043 
	C1717.468994,607.642090 1717.994019,608.797546 1723.417480,609.739868 
	C1727.183716,610.394287 1731.001831,610.744751 1734.789551,611.282288 
	C1786.675415,618.646240 1838.558472,626.029236 1890.451904,633.339294 
	C1891.947266,633.549988 1893.547974,633.012573 1895.099487,632.823914 
	C1894.531372,631.204651 1894.059448,629.541687 1893.352173,627.985718 
	C1893.027466,627.271057 1892.248535,626.758850 1891.662964,626.167358 
	C1858.285889,592.453857 1824.909668,558.739563 1791.526611,525.031982 
	C1787.308716,520.773010 1782.933838,516.661011 1778.876831,512.255188 
	C1777.247192,510.485382 1776.278931,508.106537 1775.477539,506.006073 
	C1795.543823,506.660034 1815.139404,507.415100 1834.741089,507.941406 
	C1863.491821,508.713440 1892.246826,509.321838 1921.000000,510.000000 
z"/>
<path fill="#C0601B" opacity="1.000000" stroke="none" 
	d="
M1038.234375,684.967834 
	C1039.562988,686.422668 1041.099976,687.737000 1042.189575,689.353027 
	C1066.932861,726.049438 1091.638184,762.771545 1116.328247,799.503845 
	C1145.941406,843.560608 1175.522095,887.639282 1205.158203,931.680603 
	C1207.473022,935.120728 1210.112549,938.342346 1212.819214,942.172607 
	C1212.976807,943.078613 1212.916260,943.477600 1212.670410,944.245117 
	C1210.151367,965.109253 1207.811890,985.604187 1205.485352,1006.100586 
	C1202.651367,1031.066406 1199.827881,1056.033447 1197.000000,1081.000000 
	C1000.979126,1081.000000 804.958191,1081.000000 608.490356,1080.588379 
	C613.041809,1055.414062 618.071106,1030.657715 623.027832,1005.886658 
	C626.419067,988.939636 629.709167,971.972473 633.200195,954.781616 
	C633.572449,954.033203 633.788879,953.517334 634.306091,952.972534 
	C634.807434,952.923401 635.007874,952.903381 635.360657,952.742188 
	C635.705383,952.398865 635.882080,952.183899 636.018677,951.972534 
	C635.994446,951.989075 635.953857,952.031616 636.358154,952.021484 
	C643.466125,950.061279 650.209229,948.236694 656.867493,946.142395 
	C768.192810,911.125732 879.504028,876.064026 990.842468,841.089050 
	C994.064026,840.076965 995.863525,838.414368 996.740662,835.151123 
	C1001.148499,818.753540 1005.683044,802.389893 1010.213440,786.025452 
	C1019.540161,752.335815 1028.892578,718.653320 1038.234375,684.967834 
z"/>
<path fill="#E97421" opacity="1.000000" stroke="none" 
	d="
M579.996216,253.017456 
	C575.410828,247.126404 570.672180,241.347519 566.265747,235.325516 
	C543.174500,203.767929 520.172119,172.145370 497.129974,140.551865 
	C463.988159,95.110558 430.837524,49.675709 397.703156,4.228979 
	C397.121307,3.430959 396.696869,2.518188 396.099487,1.329473 
	C594.354248,1.000000 792.708435,1.000000 991.548706,1.387243 
	C992.612183,3.665209 992.918518,5.695695 993.809692,7.424640 
	C1001.278137,21.913813 1008.957703,36.294590 1016.377075,50.808517 
	C1035.158569,87.549324 1053.818237,124.352348 1072.606689,161.089539 
	C1073.709106,163.245193 1075.519287,165.039001 1077.000000,167.375031 
	C1077.000000,168.496490 1077.000000,169.244110 1076.534668,169.993835 
	C1055.807007,170.963684 1035.547119,171.986084 1015.281616,172.882721 
	C997.668091,173.662018 980.048645,174.311325 962.430908,174.994293 
	C952.124512,175.393845 941.812195,175.659317 931.509705,176.137802 
	C904.768311,177.379791 878.031860,178.726105 851.291443,179.988113 
	C842.153076,180.419403 833.001160,180.592926 823.869568,181.127075 
	C816.417969,181.562973 808.647156,181.181381 801.609680,183.212463 
	C777.771606,190.092346 754.200195,197.895065 730.519897,205.322830 
	C703.661438,213.747498 676.774597,222.082428 649.938965,230.579102 
	C626.596619,237.969742 603.308350,245.531403 579.996216,253.017456 
z"/>
<path fill="#E97420" opacity="1.000000" stroke="none" 
	d="
M1077.000000,169.991745 
	C1077.000000,169.244110 1077.000000,168.496490 1077.262329,167.162170 
	C1078.051025,165.937286 1078.672485,165.355576 1079.089844,164.652679 
	C1096.236084,135.779083 1113.317749,106.867172 1130.509399,78.020752 
	C1142.755859,57.472054 1155.230225,37.058750 1167.413208,16.472797 
	C1170.329712,11.544584 1172.491333,6.169569 1175.000000,1.000021 
	C1292.688721,1.000000 1410.377319,1.000000 1528.635010,1.325118 
	C1530.531982,3.329519 1531.685425,5.190717 1533.215454,6.659634 
	C1547.478149,20.352610 1561.865723,33.915764 1576.099854,47.638248 
	C1597.757568,68.517097 1619.367310,89.446175 1640.911865,110.441689 
	C1659.367188,128.426727 1677.632812,146.606934 1696.139771,164.538254 
	C1700.753174,169.008133 1705.974243,172.850784 1710.901489,177.305389 
	C1710.608398,178.431107 1710.329834,179.233170 1709.635254,180.046936 
	C1687.608765,184.927841 1665.977539,189.706635 1644.391846,194.683456 
	C1581.240723,209.243713 1518.126221,223.964828 1454.948486,238.408569 
	C1444.698120,240.752014 1434.756592,243.970932 1423.552734,241.605850 
	C1341.393921,224.262405 1259.124756,207.441299 1176.884888,190.482178 
	C1143.596924,183.617722 1110.295410,176.819901 1077.000000,169.991745 
z"/>
<path fill="#BF601B" opacity="1.000000" stroke="none" 
	d="
M1710.051147,180.035248 
	C1710.329834,179.233170 1710.608398,178.431107 1710.973389,176.895142 
	C1713.364624,154.668579 1715.702148,133.179352 1717.965332,111.682274 
	C1720.211060,90.349419 1722.432007,69.013687 1724.568970,47.669731 
	C1726.125732,32.121136 1727.528564,16.557129 1729.000000,0.999995 
	C1732.692871,1.000000 1736.385864,1.000000 1740.641357,1.335691 
	C1746.802368,12.451324 1752.398926,23.232264 1757.999634,34.011082 
	C1775.648071,67.977097 1793.306274,101.938118 1810.945557,135.908936 
	C1829.658936,171.948486 1848.355225,207.996964 1867.042725,244.035217 
	C1867.026489,244.028900 1867.006592,244.003662 1866.625610,243.960205 
	C1851.896118,238.142426 1837.499878,232.483627 1823.208618,226.570969 
	C1787.981567,211.996704 1752.808228,197.292267 1717.583618,182.712189 
	C1716.186279,182.133835 1714.483887,182.292877 1712.923584,182.108337 
	C1712.848267,183.699982 1712.459351,185.349945 1712.742920,186.874847 
	C1722.363281,238.596832 1732.052734,290.305939 1741.720825,342.019073 
	C1751.236084,392.913818 1760.719849,443.814484 1770.304565,494.696136 
	C1770.778320,497.211151 1772.082520,499.569763 1772.930908,502.337646 
	C1772.589600,503.785431 1772.317627,504.896729 1771.795410,506.020569 
	C1771.377930,506.042145 1771.210938,506.051147 1771.044067,506.060120 
	C1769.082275,505.718079 1767.129395,505.145416 1765.157471,505.069733 
	C1745.898926,504.331116 1726.629761,503.837402 1707.378296,502.955688 
	C1682.661499,501.823608 1657.958984,500.381470 1633.248413,499.109833 
	C1625.119629,498.691528 1616.986450,498.344818 1608.852539,498.040985 
	C1589.925659,497.333893 1570.994019,496.747162 1552.069824,495.974091 
	C1529.166870,495.038391 1506.268921,493.976440 1483.370483,492.932800 
	C1478.229614,492.698547 1473.095459,492.313690 1467.503174,491.693054 
	C1467.067627,490.982452 1467.087280,490.576996 1467.402588,490.014923 
	C1469.476440,487.889221 1471.380371,486.018799 1473.011841,483.934906 
	C1482.758179,471.485168 1492.409058,458.960754 1502.151733,446.508148 
	C1539.377197,398.928101 1576.633301,351.372101 1613.862061,303.794617 
	C1636.937622,274.304504 1660.016113,244.816452 1683.029053,215.277390 
	C1692.126465,203.600113 1701.049072,191.786697 1710.051147,180.035248 
z"/>
<path fill="#C0601B" opacity="1.000000" stroke="none" 
	d="
M302.000000,1081.000000 
	C220.979111,1081.000000 139.958206,1081.000000 58.506691,1080.629639 
	C58.974724,1078.127441 59.637566,1075.855591 60.807358,1073.884766 
	C78.999481,1043.233398 97.267601,1012.627319 115.497215,981.998291 
	C137.219589,945.500854 158.952133,909.009460 180.605774,872.471252 
	C184.586243,865.754639 188.211426,858.827515 192.000031,851.746338 
	C191.999313,851.327637 191.999161,851.160156 192.332428,850.994263 
	C193.110352,850.998047 193.554871,851.000244 194.208664,851.263733 
	C195.591843,852.443054 196.688522,853.487061 197.950775,854.261047 
	C245.264328,883.275330 292.587555,912.273865 339.945618,941.215515 
	C341.452606,942.136536 343.337799,942.438782 345.054993,943.280823 
	C345.070831,943.699768 345.078400,943.867249 344.984772,944.397339 
	C333.238525,981.416138 321.570984,1018.065247 309.964966,1054.733765 
	C307.204346,1063.455811 304.649475,1072.242798 302.000000,1081.000000 
z"/>
<path fill="#A75418" opacity="1.000000" stroke="none" 
	d="
M302.468658,1081.000000 
	C304.649475,1072.242798 307.204346,1063.455811 309.964966,1054.733765 
	C321.570984,1018.065247 333.238525,981.416138 345.406494,944.398010 
	C348.406464,944.338379 350.877197,944.831909 353.361542,944.914185 
	C385.454407,945.976807 417.549866,946.960999 449.643280,948.007507 
	C468.263977,948.614624 486.880859,949.340759 505.501862,949.936951 
	C528.285217,950.666443 551.069946,951.358704 573.856323,951.985046 
	C589.162537,952.405823 604.477173,952.560364 619.778442,953.104065 
	C624.217468,953.261780 628.623352,954.351746 633.044434,955.014282 
	C629.709167,971.972473 626.419067,988.939636 623.027832,1005.886658 
	C618.071106,1030.657715 613.041809,1055.414062 608.021729,1080.588379 
	C506.312439,1081.000000 404.624878,1081.000000 302.468658,1081.000000 
z"/>
<path fill="#BA5D1A" opacity="1.000000" stroke="none" 
	d="
M200.910980,458.878326 
	C200.741272,459.739868 200.571579,460.601379 199.916962,461.631165 
	C197.780060,461.890137 196.105530,461.837433 194.479279,462.092468 
	C142.498535,470.243774 90.527313,478.456085 38.542103,486.578888 
	C26.050692,488.530701 13.515212,490.200500 1.000000,492.000000 
	C1.000000,410.645782 1.000000,329.291534 1.330683,247.381927 
	C3.273744,244.783966 5.148757,242.896271 6.458403,240.675217 
	C21.705822,214.816818 36.868023,188.908188 52.282150,163.006989 
	C52.511520,163.001114 52.971279,162.988983 53.128883,163.302200 
	C82.794846,222.943069 112.276276,282.284149 141.821320,341.593506 
	C160.603851,379.298004 179.476593,416.957520 198.331543,454.625885 
	C199.071182,456.103546 200.045822,457.463531 200.910980,458.878326 
z"/>
<path fill="#8E4714" opacity="1.000000" stroke="none" 
	d="
M1212.855713,943.876526 
	C1212.916260,943.477600 1212.976807,943.078613 1213.091431,942.382446 
	C1230.125000,937.311890 1247.128174,932.621338 1264.079834,927.751343 
	C1354.152954,901.874817 1444.212891,875.953125 1534.673584,850.233398 
	C1534.224854,851.828247 1533.495972,853.323242 1532.518188,854.632507 
	C1485.886597,917.070496 1439.211182,979.476013 1392.600952,1041.930054 
	C1382.948120,1054.864258 1373.527588,1067.972046 1364.000000,1081.000000 
	C1343.645752,1081.000000 1323.291504,1081.000000 1302.284668,1080.716797 
	C1294.112549,1068.832886 1286.574341,1057.244263 1279.077393,1045.628906 
	C1266.522705,1026.177124 1254.052246,1006.670593 1241.436035,987.258850 
	C1231.999512,972.739441 1222.388794,958.333191 1212.855713,943.876526 
z"/>
<path fill="#BA5D1A" opacity="1.000000" stroke="none" 
	d="
M1364.468628,1081.000000 
	C1373.527588,1067.972046 1382.948120,1054.864258 1392.600952,1041.930054 
	C1439.211182,979.476013 1485.886597,917.070496 1532.518188,854.632507 
	C1533.495972,853.323242 1534.224854,851.828247 1535.053711,850.151001 
	C1535.571045,849.845215 1536.104370,849.808167 1536.975830,850.197205 
	C1551.123535,879.240356 1564.840576,907.902527 1578.765625,936.463257 
	C1596.557983,972.955750 1614.561401,1009.345337 1632.381348,1045.824463 
	C1638.072754,1057.475464 1643.468750,1069.270752 1649.000000,1081.000000 
	C1554.312378,1081.000000 1459.624878,1081.000000 1364.468628,1081.000000 
z"/>
<path fill="#A75418" opacity="1.000000" stroke="none" 
	d="
M1723.990234,961.993530 
	C1744.621216,923.740112 1765.276245,885.499573 1785.877441,847.230103 
	C1814.060181,794.876953 1842.220337,742.511658 1870.350952,690.130493 
	C1879.176514,673.696960 1887.827026,657.169373 1896.691528,640.757141 
	C1897.821045,638.666199 1899.764160,637.014771 1902.045532,635.209473 
	C1908.840576,635.839478 1914.920288,636.419739 1921.000000,637.000000 
	C1921.000000,733.020874 1921.000000,829.041809 1920.584473,925.551147 
	C1891.561035,931.367920 1862.943726,936.646423 1834.347534,942.036987 
	C1797.578857,948.968079 1760.827026,955.989258 1724.049072,962.727112 
	C1724.030029,962.482544 1723.990234,961.993530 1723.990234,961.993530 
z"/>
<path fill="#CB651C" opacity="1.000000" stroke="none" 
	d="
M1867.058960,244.041534 
	C1848.355225,207.996964 1829.658936,171.948486 1810.945557,135.908936 
	C1793.306274,101.938118 1775.648071,67.977097 1757.999634,34.011082 
	C1752.398926,23.232264 1746.802368,12.451324 1741.102051,1.335691 
	C1800.930908,1.000000 1860.861694,1.000000 1921.000000,1.000000 
	C1921.000000,67.354080 1921.000000,133.708389 1920.668457,200.623566 
	C1912.496948,207.501541 1904.565430,213.709244 1896.840088,220.163727 
	C1887.460938,227.999924 1878.255981,236.044479 1868.655762,244.002792 
	C1867.910156,244.018295 1867.484619,244.029907 1867.058960,244.041534 
z"/>
<path fill="#AF5718" opacity="1.000000" stroke="none" 
	d="
M1724.068115,962.971680 
	C1760.827026,955.989258 1797.578857,948.968079 1834.347534,942.036987 
	C1862.943726,936.646423 1891.561035,931.367920 1920.584473,926.019836 
	C1921.000000,977.603333 1921.000000,1029.206665 1921.000000,1081.000000 
	C1853.979248,1081.000000 1786.958252,1081.000000 1719.469360,1080.531494 
	C1720.690308,1041.032593 1722.379150,1002.002136 1724.068115,962.971680 
z"/>
<path fill="#C7631C" opacity="1.000000" stroke="none" 
	d="
M191.999023,850.992676 
	C191.999161,851.160156 191.999313,851.327637 191.650375,851.833740 
	C177.727417,858.498718 164.148636,864.814636 150.580597,871.153503 
	C105.196823,892.356201 59.827812,913.590576 14.417929,934.737244 
	C10.071066,936.761536 5.478497,938.258301 0.999997,940.000000 
	C1.000000,889.312439 1.000000,838.624878 1.321896,787.360107 
	C3.223713,784.915955 5.082352,783.218994 6.340455,781.155701 
	C18.979612,760.427917 31.551125,739.658569 44.076893,718.861938 
	C51.450191,706.620056 58.706871,694.307922 66.257790,682.018311 
	C66.499557,682.009277 66.983223,681.995117 66.983223,681.995117 
	C66.983223,681.995117 67.014267,681.979980 67.173645,682.289795 
	C68.251488,683.981873 69.104240,685.413513 70.097801,686.739502 
	C109.613968,739.477356 149.150696,792.199768 188.637558,844.959473 
	C190.004562,846.786011 190.889420,848.973450 191.999023,850.992676 
z"/>
<path fill="#DB6D1F" opacity="1.000000" stroke="none" 
	d="
M1867.042725,244.035217 
	C1867.484619,244.029907 1867.910156,244.018295 1869.125732,244.002106 
	C1886.943726,242.998352 1903.971802,241.999176 1921.000000,241.000000 
	C1921.000000,330.354218 1921.000000,419.708466 1921.000000,509.531311 
	C1892.246826,509.321838 1863.491821,508.713440 1834.741089,507.941406 
	C1815.139404,507.415100 1795.543823,506.660034 1775.106445,506.004425 
	C1773.526855,506.003754 1772.786255,506.005890 1772.045776,506.008026 
	C1772.317627,504.896729 1772.589600,503.785431 1773.127686,502.041534 
	C1781.446899,479.561462 1789.535156,457.726837 1797.546265,435.863983 
	C1817.234009,382.135620 1836.921021,328.406952 1856.522705,274.647186 
	C1860.220215,264.506653 1863.522095,254.221863 1867.006592,244.003677 
	C1867.006592,244.003662 1867.026489,244.028900 1867.042725,244.035217 
z"/>
<path fill="#A75418" opacity="1.000000" stroke="none" 
	d="
M67.081970,681.659607 
	C66.983223,681.995117 66.499557,682.009277 65.829559,682.018616 
	C61.373856,682.534973 57.585155,683.020691 53.802952,683.552612 
	C36.200981,686.028076 18.600809,688.516296 0.999997,691.000000 
	C1.000000,624.979126 1.000000,558.958191 1.000000,492.468658 
	C13.515212,490.200500 26.050692,488.530701 38.542103,486.578888 
	C90.527313,478.456085 142.498535,470.243774 194.479279,462.092468 
	C196.105530,461.837433 197.780060,461.890137 199.756607,461.921143 
	C168.295197,514.343750 136.484406,566.629517 104.735596,618.952881 
	C92.146454,639.700317 79.694908,660.531189 67.081970,681.659607 
z"/>
<path fill="#AF5718" opacity="1.000000" stroke="none" 
	d="
M0.999997,940.468628 
	C5.478497,938.258301 10.071066,936.761536 14.417929,934.737244 
	C59.827812,913.590576 105.196823,892.356201 150.580597,871.153503 
	C164.148636,864.814636 177.727417,858.498718 191.650940,852.084961 
	C188.211426,858.827515 184.586243,865.754639 180.605774,872.471252 
	C158.952133,909.009460 137.219589,945.500854 115.497215,981.998291 
	C97.267601,1012.627319 78.999481,1043.233398 60.807358,1073.884766 
	C59.637566,1075.855591 58.974724,1078.127441 58.038033,1080.629639 
	C39.042072,1081.000000 20.084141,1081.000000 1.000000,1081.000000 
	C1.000000,1034.312500 1.000000,987.624939 0.999997,940.468628 
z"/>
<path fill="#BF601B" opacity="1.000000" stroke="none" 
	d="
M1724.049072,962.727112 
	C1722.379150,1002.002136 1720.690308,1041.032593 1719.000732,1080.531494 
	C1695.979126,1081.000000 1672.958130,1081.000000 1649.468628,1081.000000 
	C1643.468750,1069.270752 1638.072754,1057.475464 1632.381348,1045.824463 
	C1614.561401,1009.345337 1596.557983,972.955750 1578.765625,936.463257 
	C1564.840576,907.902527 1551.123535,879.240356 1537.159912,850.305054 
	C1550.439819,857.950989 1563.938599,865.808289 1577.294800,873.900879 
	C1607.152832,891.992004 1636.943359,910.194519 1666.754272,928.363403 
	C1683.788086,938.744995 1700.796143,949.168640 1717.852051,959.513855 
	C1719.524414,960.528198 1721.450439,961.124207 1723.624512,961.953979 
	C1723.990234,961.993530 1724.030029,962.482544 1724.049072,962.727112 
z"/>
<path fill="#EC7621" opacity="1.000000" stroke="none" 
	d="
M1728.531250,0.999995 
	C1727.528564,16.557129 1726.125732,32.121136 1724.568970,47.669731 
	C1722.432007,69.013687 1720.211060,90.349419 1717.965332,111.682274 
	C1715.702148,133.179352 1713.364624,154.668579 1710.987793,176.571487 
	C1705.974243,172.850784 1700.753174,169.008133 1696.139771,164.538254 
	C1677.632812,146.606934 1659.367188,128.426727 1640.911865,110.441689 
	C1619.367310,89.446175 1597.757568,68.517097 1576.099854,47.638248 
	C1561.865723,33.915764 1547.478149,20.352610 1533.215454,6.659634 
	C1531.685425,5.190717 1530.531982,3.329519 1529.102051,1.325118 
	C1595.354248,1.000000 1661.708496,1.000000 1728.531250,0.999995 
z"/>
<path fill="#EC7621" opacity="1.000000" stroke="none" 
	d="
M1174.531494,1.000021 
	C1172.491333,6.169569 1170.329712,11.544584 1167.413208,16.472797 
	C1155.230225,37.058750 1142.755859,57.472054 1130.509399,78.020752 
	C1113.317749,106.867172 1096.236084,135.779083 1079.089844,164.652679 
	C1078.672485,165.355576 1078.051025,165.937286 1077.262329,166.788361 
	C1075.519287,165.039001 1073.709106,163.245193 1072.606689,161.089539 
	C1053.818237,124.352348 1035.158569,87.549324 1016.377075,50.808517 
	C1008.957703,36.294590 1001.278137,21.913813 993.809692,7.424640 
	C992.918518,5.695695 992.612183,3.665209 992.017395,1.387243 
	C1052.687622,1.000000 1113.375122,1.000000 1174.531494,1.000021 
z"/>
<path fill="#CB651C" opacity="1.000000" stroke="none" 
	d="
M334.531342,0.999999 
	C334.112610,2.378748 333.420929,3.944593 332.308472,5.108159 
	C315.890747,22.280205 299.341644,39.327114 282.975708,56.548161 
	C262.381836,78.218040 241.931900,100.024712 221.392563,121.746559 
	C220.617950,122.565750 219.557877,123.115013 218.003693,123.741241 
	C216.000458,122.767197 214.578415,121.903061 213.255081,120.907700 
	C186.426254,100.728043 159.626724,80.509399 132.780869,60.352455 
	C120.562798,51.178650 108.257553,42.120937 95.991081,32.758308 
	C95.990829,32.337875 95.991341,32.169701 96.241135,32.001503 
	C96.490417,32.001476 96.988800,32.002716 97.396553,31.988373 
	C98.300354,31.928045 98.811630,31.944307 99.290283,31.827208 
	C137.842575,22.395521 176.396225,12.969214 214.927338,3.451674 
	C216.397079,3.088633 217.647415,1.837367 219.000000,1.000000 
	C257.354218,1.000000 295.708466,1.000000 334.531342,0.999999 
z"/>
<path fill="#BF601B" opacity="1.000000" stroke="none" 
	d="
M95.991844,32.001530 
	C95.991341,32.169701 95.990829,32.337875 95.848953,33.093864 
	C82.070686,73.824661 68.440819,113.970047 54.779034,154.104568 
	C53.979790,156.452515 52.922680,158.712708 51.754768,160.998077 
	C51.523968,160.982407 51.062302,160.952026 50.870239,160.676758 
	C35.978024,140.420074 21.307402,120.416779 6.533468,100.490074 
	C5.003676,98.426727 2.859242,96.819084 1.000000,95.000000 
	C1.000000,63.779442 1.000000,32.558880 1.000000,1.000000 
	C10.018075,1.000000 19.040379,1.000000 28.679859,1.306279 
	C30.604235,2.574731 31.792175,3.797915 33.237301,4.458231 
	C46.048866,10.312167 58.872807,16.141695 71.761864,21.822397 
	C79.777023,25.354984 87.911125,28.617693 95.991844,32.001530 
z"/>
<path fill="#824D27" opacity="1.000000" stroke="none" 
	d="
M1212.670410,944.245117 
	C1222.388794,958.333191 1231.999512,972.739441 1241.436035,987.258850 
	C1254.052246,1006.670593 1266.522705,1026.177124 1279.077393,1045.628906 
	C1286.574341,1057.244263 1294.112549,1068.832886 1301.816162,1080.716797 
	C1267.312378,1081.000000 1232.624878,1081.000000 1197.468628,1081.000000 
	C1199.827881,1056.033447 1202.651367,1031.066406 1205.485352,1006.100586 
	C1207.811890,985.604187 1210.151367,965.109253 1212.670410,944.245117 
z"/>
<path fill="#BA5D1A" opacity="1.000000" stroke="none" 
	d="
M0.999997,691.468628 
	C18.600809,688.516296 36.200981,686.028076 53.802952,683.552612 
	C57.585155,683.020691 61.373856,682.534973 65.587791,682.027710 
	C58.706871,694.307922 51.450191,706.620056 44.076893,718.861938 
	C31.551125,739.658569 18.979612,760.427917 6.340455,781.155701 
	C5.082352,783.218994 3.223713,784.915955 1.321896,786.891479 
	C1.000000,755.312439 1.000000,723.624878 0.999997,691.468628 
z"/>
<path fill="#DF6F1F" opacity="1.000000" stroke="none" 
	d="
M51.062302,160.952026 
	C51.062302,160.952026 51.523968,160.982407 51.766388,161.330994 
	C52.023468,162.124023 52.038128,162.568436 52.052788,163.012863 
	C36.868023,188.908188 21.705822,214.816818 6.458403,240.675217 
	C5.148757,242.896271 3.273744,244.783966 1.330683,246.913269 
	C1.000000,218.312439 1.000000,189.624878 1.468090,160.468872 
	C15.541166,160.636490 29.143465,161.345383 42.753384,161.847824 
	C45.508247,161.949524 48.291912,161.270905 51.062302,160.952026 
z"/>
<path fill="#EC7621" opacity="1.000000" stroke="none" 
	d="
M218.531342,1.000000 
	C217.647415,1.837367 216.397079,3.088633 214.927338,3.451674 
	C176.396225,12.969214 137.842575,22.395521 99.290283,31.827208 
	C98.811630,31.944307 98.300354,31.928045 97.388901,31.721283 
	C96.965355,31.290600 96.957222,31.112667 97.121124,30.633461 
	C98.097847,28.709940 98.985741,27.123075 99.693130,25.459459 
	C103.155151,17.317530 106.569077,9.155149 110.000000,1.000000 
	C146.020889,1.000000 182.041794,1.000000 218.531342,1.000000 
z"/>
<path fill="#E97421" opacity="1.000000" stroke="none" 
	d="
M50.870239,160.676758 
	C48.291912,161.270905 45.508247,161.949524 42.753384,161.847824 
	C29.143465,161.345383 15.541166,160.636490 1.468090,160.000214 
	C1.000000,138.645767 1.000000,117.291542 1.000000,95.468658 
	C2.859242,96.819084 5.003676,98.426727 6.533468,100.490074 
	C21.307402,120.416779 35.978024,140.420074 50.870239,160.676758 
z"/>
<path fill="#E97420" opacity="1.000000" stroke="none" 
	d="
M1921.000000,240.531342 
	C1903.971802,241.999176 1886.943726,242.998352 1869.445557,243.998199 
	C1878.255981,236.044479 1887.460938,227.999924 1896.840088,220.163727 
	C1904.565430,213.709244 1912.496948,207.501541 1920.668457,201.092224 
	C1921.000000,214.020889 1921.000000,227.041794 1921.000000,240.531342 
z"/>
<path fill="#C7631C" opacity="1.000000" stroke="none" 
	d="
M96.949089,30.934734 
	C96.957222,31.112667 96.965355,31.290600 96.981148,31.735624 
	C96.988800,32.002716 96.490417,32.001476 96.241135,32.001503 
	C87.911125,28.617693 79.777023,25.354984 71.761864,21.822397 
	C58.872807,16.141695 46.048866,10.312167 33.237301,4.458231 
	C31.792175,3.797915 30.604235,2.574731 29.148518,1.306279 
	C49.354229,1.000000 69.708458,1.000000 90.549103,1.412536 
	C93.006706,11.528293 94.977898,21.231514 96.949089,30.934734 
z"/>
<path fill="#BA5D1A" opacity="1.000000" stroke="none" 
	d="
M97.121124,30.633461 
	C94.977898,21.231514 93.006706,11.528293 91.017761,1.412536 
	C97.021156,1.000000 103.042305,1.000000 109.531731,1.000000 
	C106.569077,9.155149 103.155151,17.317530 99.693130,25.459459 
	C98.985741,27.123075 98.097847,28.709940 97.121124,30.633461 
z"/>
<path fill="#C0601B" opacity="1.000000" stroke="none" 
	d="
M1921.000000,636.532410 
	C1914.920288,636.419739 1908.840576,635.839478 1902.374756,635.103394 
	C1908.104370,630.031616 1914.220215,625.115784 1920.667969,620.099976 
	C1921.000000,625.354919 1921.000000,630.709900 1921.000000,636.532410 
z"/>
<path fill="#DF6F1F" opacity="1.000000" stroke="none" 
	d="
M1709.635254,180.046936 
	C1701.049072,191.786697 1692.126465,203.600113 1683.029053,215.277390 
	C1660.016113,244.816452 1636.937622,274.304504 1613.862061,303.794617 
	C1576.633301,351.372101 1539.377197,398.928101 1502.151733,446.508148 
	C1492.409058,458.960754 1482.758179,471.485168 1473.011841,483.934906 
	C1471.380371,486.018799 1469.476440,487.889221 1467.245117,489.624451 
	C1463.812500,467.977661 1460.772949,446.572876 1457.865967,425.150146 
	C1450.439575,370.421234 1443.084839,315.682587 1435.656494,260.953949 
	C1435.091309,256.790863 1434.170898,252.676041 1433.415649,248.538788 
	C1432.849365,248.382462 1432.283203,248.226135 1431.716919,248.069809 
	C1430.147949,250.041107 1428.387207,251.889908 1427.038818,254.002029 
	C1405.450806,287.814423 1383.891357,321.645020 1362.373901,355.502380 
	C1331.484009,404.107178 1300.614990,452.725281 1269.787964,501.369965 
	C1265.705078,507.812622 1261.921143,514.444641 1257.998779,520.988892 
	C1257.554321,520.994385 1257.109863,520.999878 1256.228760,520.675598 
	C1254.517822,518.206665 1253.130493,516.126038 1251.986572,513.919250 
	C1241.489136,493.668976 1231.061768,473.382385 1220.559570,453.134644 
	C1207.840210,428.612488 1195.039429,404.132507 1182.325317,379.607574 
	C1162.557129,341.475403 1142.790283,303.342316 1123.102905,265.168304 
	C1109.136353,238.087067 1095.310669,210.933182 1081.384033,183.831299 
	C1080.640747,182.384811 1079.543823,181.120087 1078.611450,179.770782 
	C1078.181152,179.906525 1077.750854,180.042282 1077.320679,180.178024 
	C1075.910400,189.669586 1074.409180,199.148682 1073.105835,208.654892 
	C1067.908081,246.568176 1062.810913,284.495270 1057.601562,322.406952 
	C1052.777466,357.513672 1047.852173,392.606476 1042.982056,427.706909 
	C1039.963501,449.461945 1037.014160,471.226868 1033.863403,492.962677 
	C1033.608276,494.722290 1032.032837,496.290527 1030.881104,497.669830 
	C955.813599,393.026733 880.935974,288.661438 806.058289,184.296173 
	C805.524109,184.492996 804.989868,184.689819 804.455688,184.886642 
	C803.920105,186.726044 803.234253,188.536331 802.871643,190.409195 
	C798.218994,214.436798 793.718079,238.494217 788.972168,262.503265 
	C779.382629,311.015869 769.666443,359.503448 760.002441,408.001343 
	C755.130310,404.288696 750.064697,400.802124 745.419189,396.824738 
	C723.812378,378.325287 702.292664,359.723877 680.798706,341.093109 
	C662.069580,324.858826 643.453186,308.494263 624.717285,292.267822 
	C611.640137,280.942169 598.432068,269.767853 585.318848,258.483551 
	C583.561096,256.970917 582.017334,255.209549 580.185303,253.290421 
	C603.308350,245.531403 626.596619,237.969742 649.938965,230.579102 
	C676.774597,222.082428 703.661438,213.747498 730.519897,205.322830 
	C754.200195,197.895065 777.771606,190.092346 801.609680,183.212463 
	C808.647156,181.181381 816.417969,181.562973 823.869568,181.127075 
	C833.001160,180.592926 842.153076,180.419403 851.291443,179.988113 
	C878.031860,178.726105 904.768311,177.379791 931.509705,176.137802 
	C941.812195,175.659317 952.124512,175.393845 962.430908,174.994293 
	C980.048645,174.311325 997.668091,173.662018 1015.281616,172.882721 
	C1035.547119,171.986084 1055.807007,170.963684 1076.534668,169.993835 
	C1110.295410,176.819901 1143.596924,183.617722 1176.884888,190.482178 
	C1259.124756,207.441299 1341.393921,224.262405 1423.552734,241.605850 
	C1434.756592,243.970932 1444.698120,240.752014 1454.948486,238.408569 
	C1518.126221,223.964828 1581.240723,209.243713 1644.391846,194.683456 
	C1665.977539,189.706635 1687.608765,184.927841 1709.635254,180.046936 
z"/>
<path fill="#BA5D1A" opacity="1.000000" stroke="none" 
	d="
M635.208313,952.883362 
	C635.007874,952.903381 634.807434,952.923401 634.083984,952.705566 
	C633.147766,951.747681 632.672852,951.055786 632.330261,950.303589 
	C619.424866,921.971863 606.567078,893.618408 593.626404,865.302917 
	C582.000000,839.863464 570.248779,814.481018 558.616760,789.044128 
	C543.315674,755.583862 528.039734,722.111938 512.833008,688.608765 
	C507.744324,677.397400 502.900909,666.074707 497.945374,654.802856 
	C501.702820,655.049927 505.536713,654.899048 509.206329,655.603638 
	C564.012756,666.127197 618.795166,676.775513 673.587830,687.370728 
	C742.282104,700.653931 810.980164,713.917542 879.679626,727.173950 
	C881.471985,727.519836 883.299500,727.683960 885.617065,728.056885 
	C886.123596,728.180969 886.299072,728.433105 886.092896,728.673706 
	C864.578674,748.032654 843.307007,767.191711 821.952698,786.258118 
	C798.736267,806.987122 775.433472,827.619263 752.186523,848.313965 
	C735.652039,863.033081 719.146729,877.784973 702.630249,892.524292 
	C680.403870,912.359131 658.179260,932.195801 635.953857,952.031616 
	C635.953857,952.031616 635.994446,951.989075 635.867676,952.117737 
	C635.539307,952.438538 635.361755,952.650879 635.208313,952.883362 
z"/>
<path fill="#AF5718" opacity="1.000000" stroke="none" 
	d="
M497.614197,654.819946 
	C502.900909,666.074707 507.744324,677.397400 512.833008,688.608765 
	C528.039734,722.111938 543.315674,755.583862 558.616760,789.044128 
	C570.248779,814.481018 582.000000,839.863464 593.626404,865.302917 
	C606.567078,893.618408 619.424866,921.971863 632.330261,950.303589 
	C632.672852,951.055786 633.147766,951.747681 633.783142,952.734619 
	C633.788879,953.517334 633.572449,954.033203 633.200195,954.781616 
	C628.623352,954.351746 624.217468,953.261780 619.778442,953.104065 
	C604.477173,952.560364 589.162537,952.405823 573.856323,951.985046 
	C551.069946,951.358704 528.285217,950.666443 505.501862,949.936951 
	C486.880859,949.340759 468.263977,948.614624 449.643280,948.007507 
	C417.549866,946.960999 385.454407,945.976807 353.361542,944.914185 
	C350.877197,944.831909 348.406464,944.338379 345.507660,944.035400 
	C345.078400,943.867249 345.070831,943.699768 345.212524,943.052612 
	C345.585602,942.068909 345.809448,941.564819 346.253265,940.801575 
	C351.478546,931.339600 356.615021,922.205200 361.466461,912.921875 
	C382.656097,872.374817 403.759827,831.782898 424.901459,791.210693 
	C433.665619,774.391541 442.452148,757.584045 451.218567,740.766052 
	C466.135529,712.148254 481.044647,683.526489 495.957092,654.906372 
	C496.399078,654.883240 496.841064,654.860107 497.614197,654.819946 
z"/>
<path fill="#BF601B" opacity="1.000000" stroke="none" 
	d="
M1032.042114,499.953979 
	C1032.030518,500.138428 1032.018799,500.322876 1031.758789,501.016205 
	C1030.088867,503.576660 1028.594727,505.582123 1027.256470,507.686676 
	C1005.100098,542.529053 982.978577,577.393494 960.818237,612.233276 
	C936.245483,650.865784 911.641235,689.478333 886.864014,728.185669 
	C886.677307,728.271729 886.299072,728.433105 886.299072,728.433105 
	C886.299072,728.433105 886.123596,728.180969 886.034790,728.054565 
	C878.338989,708.395386 870.821106,688.827271 863.108826,669.336121 
	C834.943787,598.155151 806.707275,527.002502 778.514038,455.832672 
	C772.692017,441.135681 766.940430,426.410797 761.466675,411.363586 
	C772.125366,414.165710 782.540527,417.100250 792.810730,420.475555 
	C836.332642,434.779144 879.821167,449.184601 923.302979,463.609680 
	C956.825439,474.730652 990.316467,485.946594 1023.833862,497.082855 
	C1026.191650,497.866211 1028.652222,498.339722 1031.234863,499.116333 
	C1031.626953,499.492462 1031.839355,499.718689 1032.042114,499.953979 
z"/>
<path fill="#CB651C" opacity="1.000000" stroke="none" 
	d="
M495.683441,654.823364 
	C481.044647,683.526489 466.135529,712.148254 451.218567,740.766052 
	C442.452148,757.584045 433.665619,774.391541 424.901459,791.210693 
	C403.759827,831.782898 382.656097,872.374817 361.466461,912.921875 
	C356.615021,922.205200 351.478546,931.339600 346.062103,940.501099 
	C344.540833,938.053772 343.113617,935.742065 342.367218,933.228210 
	C326.058258,878.299744 309.828735,823.347595 293.571625,768.403687 
	C291.797424,762.407349 289.900330,761.918823 285.421387,766.065063 
	C277.607727,773.298157 269.692780,780.422119 261.899017,787.676453 
	C239.244904,808.762634 216.629791,829.890747 193.999374,851.002441 
	C193.554871,851.000244 193.110352,850.998047 192.332428,850.994263 
	C190.889420,848.973450 190.004562,846.786011 188.637558,844.959473 
	C149.150696,792.199768 109.613968,739.477356 70.097801,686.739502 
	C69.104240,685.413513 68.251488,683.981873 67.190834,682.291382 
	C83.456711,687.518616 99.893684,692.970154 116.265564,698.610596 
	C136.899338,705.719360 157.455521,713.053345 178.088913,720.163208 
	C213.689331,732.430359 249.350754,744.521301 284.912659,756.898682 
	C289.920044,758.641541 293.833435,758.258179 298.493073,755.561829 
	C308.719055,749.644470 319.371460,744.458130 329.896667,739.064880 
	C359.847382,723.717834 389.845520,708.463074 419.778992,693.082397 
	C443.330139,680.981201 466.806549,668.734436 490.339935,656.598511 
	C491.927216,655.780029 493.715179,655.350769 495.683441,654.823364 
z"/>
<path fill="#C7631C" opacity="1.000000" stroke="none" 
	d="
M1031.065063,498.957306 
	C1028.652222,498.339722 1026.191650,497.866211 1023.833862,497.082855 
	C990.316467,485.946594 956.825439,474.730652 923.302979,463.609680 
	C879.821167,449.184601 836.332642,434.779144 792.810730,420.475555 
	C782.540527,417.100250 772.125366,414.165710 761.374634,411.007782 
	C760.696533,410.196381 760.420654,409.405548 760.073608,408.308044 
	C769.666443,359.503448 779.382629,311.015869 788.972168,262.503265 
	C793.718079,238.494217 798.218994,214.436798 802.871643,190.409195 
	C803.234253,188.536331 803.920105,186.726044 804.455688,184.886642 
	C804.989868,184.689819 805.524109,184.492996 806.058289,184.296173 
	C880.935974,288.661438 955.813599,393.026733 1030.876221,497.922577 
	C1031.062500,498.621216 1031.063721,498.789246 1031.065063,498.957306 
z"/>
<path fill="#A75418" opacity="1.000000" stroke="none" 
	d="
M200.933594,458.431274 
	C200.045822,457.463531 199.071182,456.103546 198.331543,454.625885 
	C179.476593,416.957520 160.603851,379.298004 141.821320,341.593506 
	C112.276276,282.284149 82.794846,222.943069 53.435970,163.101944 
	C55.474407,161.963974 57.326027,161.173004 59.257870,160.739777 
	C91.730118,153.457504 124.219902,146.253403 156.689651,138.960083 
	C177.141495,134.366211 197.566650,129.653564 218.003784,124.994186 
	C217.065369,144.767944 216.152206,164.542953 215.179794,184.315048 
	C214.509567,197.942780 213.759949,211.566620 213.041122,225.191956 
	C211.743973,249.780228 210.400223,274.366150 209.159607,298.957275 
	C208.354645,314.912384 207.795227,330.880127 206.951355,346.833008 
	C205.800156,368.595978 204.440323,390.347870 203.251312,412.108948 
	C202.416016,427.396881 201.716415,442.692230 200.933594,458.431274 
z"/>
<path fill="#C0601B" opacity="1.000000" stroke="none" 
	d="
M217.999527,124.744545 
	C197.566650,129.653564 177.141495,134.366211 156.689651,138.960083 
	C124.219902,146.253403 91.730118,153.457504 59.257870,160.739777 
	C57.326027,161.173004 55.474407,161.963974 53.278366,162.788727 
	C52.971279,162.988983 52.511520,163.001114 52.282158,163.006989 
	C52.038128,162.568436 52.023468,162.124023 51.997192,161.346664 
	C52.922680,158.712708 53.979790,156.452515 54.779034,154.104568 
	C68.440819,113.970047 82.070686,73.824661 95.849716,33.346123 
	C108.257553,42.120937 120.562798,51.178650 132.780869,60.352455 
	C159.626724,80.509399 186.426254,100.728043 213.255081,120.907700 
	C214.578415,121.903061 216.000458,122.767197 217.678787,123.844101 
	C217.981033,123.995773 217.995270,124.494911 217.999527,124.744545 
z"/>
<path fill="#824D27" opacity="1.000000" stroke="none" 
	d="
M886.092896,728.673706 
	C886.299072,728.433105 886.677307,728.271729 887.258057,728.146179 
	C889.614685,727.603027 891.415833,727.270935 893.162720,726.755371 
	C941.459473,712.501343 989.750793,698.228760 1038.042969,683.959229 
	C1038.074463,684.127441 1038.105957,684.295593 1038.185791,684.715759 
	C1028.892578,718.653320 1019.540161,752.335815 1010.213440,786.025452 
	C1005.683044,802.389893 1001.148499,818.753540 996.740662,835.151123 
	C995.863525,838.414368 994.064026,840.076965 990.842468,841.089050 
	C879.504028,876.064026 768.192810,911.125732 656.867493,946.142395 
	C650.209229,948.236694 643.466125,950.061279 636.358215,952.021545 
	C658.179260,932.195801 680.403870,912.359131 702.630249,892.524292 
	C719.146729,877.784973 735.652039,863.033081 752.186523,848.313965 
	C775.433472,827.619263 798.736267,806.987122 821.952698,786.258118 
	C843.307007,767.191711 864.578674,748.032654 886.092896,728.673706 
z"/>
<path fill="#DB6D1F" opacity="1.000000" stroke="none" 
	d="
M1031.234863,499.116333 
	C1031.063721,498.789246 1031.062500,498.621216 1031.066040,498.200409 
	C1032.032837,496.290527 1033.608276,494.722290 1033.863403,492.962677 
	C1037.014160,471.226868 1039.963501,449.461945 1042.982056,427.706909 
	C1047.852173,392.606476 1052.777466,357.513672 1057.601562,322.406952 
	C1062.810913,284.495270 1067.908081,246.568176 1073.105835,208.654892 
	C1074.409180,199.148682 1075.910400,189.669586 1077.320679,180.178024 
	C1077.750854,180.042282 1078.181152,179.906525 1078.611450,179.770782 
	C1079.543823,181.120087 1080.640747,182.384811 1081.384033,183.831299 
	C1095.310669,210.933182 1109.136353,238.087067 1123.102905,265.168304 
	C1142.790283,303.342316 1162.557129,341.475403 1182.325317,379.607574 
	C1195.039429,404.132507 1207.840210,428.612488 1220.559570,453.134644 
	C1231.061768,473.382385 1241.489136,493.668976 1251.986572,513.919250 
	C1253.130493,516.126038 1254.517822,518.206665 1255.895630,520.677002 
	C1242.744751,519.858154 1229.485596,518.761475 1216.237305,517.544434 
	C1200.336548,516.083679 1184.441528,514.556152 1168.550537,512.991882 
	C1150.339844,511.199188 1132.139404,509.301239 1113.928589,507.510040 
	C1094.891846,505.637573 1075.850220,503.812042 1056.805908,502.018188 
	C1048.858521,501.269623 1040.898682,500.655823 1032.493286,499.967346 
	C1031.839355,499.718689 1031.626953,499.492462 1031.234863,499.116333 
z"/>
<path fill="#DB6D1F" opacity="1.000000" stroke="none" 
	d="
M1258.425537,520.985107 
	C1261.921143,514.444641 1265.705078,507.812622 1269.787964,501.369965 
	C1300.614990,452.725281 1331.484009,404.107178 1362.373901,355.502380 
	C1383.891357,321.645020 1405.450806,287.814423 1427.038818,254.002029 
	C1428.387207,251.889908 1430.147949,250.041107 1431.716919,248.069809 
	C1432.283203,248.226135 1432.849365,248.382462 1433.415649,248.538788 
	C1434.170898,252.676041 1435.091309,256.790863 1435.656494,260.953949 
	C1443.084839,315.682587 1450.439575,370.421234 1457.865967,425.150146 
	C1460.772949,446.572876 1463.812500,467.977661 1466.949341,489.781067 
	C1467.087280,490.576996 1467.067627,490.982452 1467.041260,491.693756 
	C1426.653320,497.656158 1386.272461,503.314148 1345.890869,508.968811 
	C1317.873291,512.892151 1289.855469,516.812744 1261.836304,520.724915 
	C1260.848999,520.862793 1259.847290,520.898193 1258.425537,520.985107 
z"/>
<path fill="#A75418" opacity="1.000000" stroke="none" 
	d="
M1038.052734,683.494446 
	C989.750793,698.228760 941.459473,712.501343 893.162720,726.755371 
	C891.415833,727.270935 889.614685,727.603027 887.444824,728.060059 
	C911.641235,689.478333 936.245483,650.865784 960.818237,612.233276 
	C982.978577,577.393494 1005.100098,542.529053 1027.256470,507.686676 
	C1028.594727,505.582123 1030.088867,503.576660 1031.741943,501.292908 
	C1033.014282,532.304016 1034.046387,563.547668 1035.098999,594.790527 
	C1035.742920,613.900269 1036.428101,633.008606 1037.075928,652.118164 
	C1037.425171,662.421326 1037.734863,672.725769 1038.052734,683.494446 
z"/>
<path fill="#D76B1E" opacity="1.000000" stroke="none" 
	d="
M1771.795410,506.020569 
	C1772.786255,506.005890 1773.526855,506.003754 1774.638428,506.003265 
	C1776.278931,508.106537 1777.247192,510.485382 1778.876831,512.255188 
	C1782.933838,516.661011 1787.308716,520.773010 1791.526611,525.031982 
	C1824.909668,558.739563 1858.285889,592.453857 1891.662964,626.167358 
	C1892.248535,626.758850 1893.027466,627.271057 1893.352173,627.985718 
	C1894.059448,629.541687 1894.531372,631.204651 1895.099487,632.823914 
	C1893.547974,633.012573 1891.947266,633.549988 1890.451904,633.339294 
	C1838.558472,626.029236 1786.675415,618.646240 1734.789551,611.282288 
	C1731.001831,610.744751 1727.183716,610.394287 1723.417480,609.739868 
	C1717.994019,608.797546 1717.468994,607.642090 1720.005127,602.894043 
	C1736.468628,572.070923 1752.941284,541.252747 1769.390991,510.422272 
	C1770.010620,509.261169 1770.423706,507.989899 1770.988525,506.415039 
	C1771.210938,506.051147 1771.377930,506.042145 1771.795410,506.020569 
z"/>
<path fill="#824D27" opacity="1.000000" stroke="none" 
	d="
M635.360657,952.742188 
	C635.361755,952.650879 635.539307,952.438538 635.891968,952.101196 
	C635.882080,952.183899 635.705383,952.398865 635.360657,952.742188 
z"/>
<path fill="#BA5D1A" opacity="1.000000" stroke="none" 
	d="
M1866.625732,243.960205 
	C1863.522095,254.221863 1860.220215,264.506653 1856.522705,274.647186 
	C1836.921021,328.406952 1817.234009,382.135620 1797.546265,435.863983 
	C1789.535156,457.726837 1781.446899,479.561462 1773.196899,501.705078 
	C1772.082520,499.569763 1770.778320,497.211151 1770.304565,494.696136 
	C1760.719849,443.814484 1751.236084,392.913818 1741.720825,342.019073 
	C1732.052734,290.305939 1722.363281,238.596832 1712.742920,186.874847 
	C1712.459351,185.349945 1712.848267,183.699982 1712.923584,182.108337 
	C1714.483887,182.292877 1716.186279,182.133835 1717.583618,182.712189 
	C1752.808228,197.292267 1787.981567,211.996704 1823.208618,226.570969 
	C1837.499878,232.483627 1851.896118,238.142426 1866.625732,243.960205 
z"/>
<path fill="#C7631C" opacity="1.000000" stroke="none" 
	d="
M194.208649,851.263733 
	C216.629791,829.890747 239.244904,808.762634 261.899017,787.676453 
	C269.692780,780.422119 277.607727,773.298157 285.421387,766.065063 
	C289.900330,761.918823 291.797424,762.407349 293.571625,768.403687 
	C309.828735,823.347595 326.058258,878.299744 342.367218,933.228210 
	C343.113617,935.742065 344.540833,938.053772 345.842133,940.760132 
	C345.809448,941.564819 345.585602,942.068909 345.204254,942.801270 
	C343.337799,942.438782 341.452606,942.136536 339.945618,941.215515 
	C292.587555,912.273865 245.264328,883.275330 197.950775,854.261047 
	C196.688522,853.487061 195.591843,852.443054 194.208649,851.263733 
z"/>
</svg>