<svg xmlns="http://www.w3.org/2000/svg" xml:space="preserve" viewBox="0 0 1300 1300">
  <path fill="#02073A" d="M742 606.4c6 4 12.5 3.9 18.2.3 4.9-3 10-6.8 12.8-11.6 8.2-13.3 20-22.9 31.2-33.2 9.7-9 20-17.4 30-26 1.5-1.2 3.4-1.8 5.7-2.5 7.4 2.5 14.2 4.8 21 7.3a48.3 48.3 0 0 1 28.8 29.8 17 17 0 0 1-1.7 16.4c-3 4.5-4.7 9.8-7 14.7a379.2 379.2 0 0 1-38.4 64c-7.5 10.3-14.7 21-22.7 30.8-14.1 17.5-29.2 34-49.6 44.5a31 31 0 0 0-17 23.7c-2 11.3-4 22.5-6.5 33.7a72.5 72.5 0 0 0 8.1 48.4l2.5 4.9c1.1 2 2 3.3 2.8 4.6 0 .4 0 .7-.3 1.4l-1 3h-.6c-.7.7-1 1.4-1.4 2h-.6c-.7.7-1 1.4-1.4 2h-.6c-.7.8-1 1.4-1.4 2h-.6c-.7.8-1 1.4-1.4 2h-.6c-.7.8-1 1.4-1.4 2h-.6c-.7.8-1 1.4-1.4 2h-.6c-.7.8-1 1.4-1.4 2l-.6.1c-.7.6-1 1.3-1.4 1.9l-4.5 5c-7.3 7.4-13.6 15-21 21.3-5.5 4.8-12.2 8.2-18.7 12.1l-1.3.4-1.8.3-2 1c-3 .1-5.3.1-7.9-.1l-2.9-.3-.1-.4c-.6-.5-1.2-.7-1.7-.9v-.2a41.1 41.1 0 0 1-3.4-2.7l.1-1.2c-.7-3.7-1.5-6.8-2.3-10l-.6-8.5c-.4-1.6-.9-2.5-1.4-3.5-.2-.6-.5-1.3-.6-2.5-.4-1.6-.9-2.5-1.4-3.5-.2-.6-.5-1.3-.6-2.5-.4-1.6-.9-2.5-1.4-3.5a34 34 0 0 1-.6-4.5c-.5-1.6-1-2.5-1.6-3.4 0 0-.4-.3-.3-.8-.4-1.5-1-2.4-1.5-3.3a34 34 0 0 1-.6-4.5c-.4-1.6-.9-2.5-1.4-3.5l-.6-6.5c-.5-1.6-1-2.5-1.6-3.4 0 0-.4-.3-.3-.8-.4-1.5-1-2.4-1.5-3.3l-.6-6.5c-.4-1.6-.9-2.5-1.4-3.5-.2-1.3-.5-2.5-.6-4.5-.4-1.6-.9-2.5-1.4-3.5-.2-.6-.5-1.3-.6-2.5a13 13 0 0 0-1.4-3.5c-.2-1.3-.5-2.5-.6-4.5-.4-1.6-.9-2.5-1.4-3.5l-.6-8.5c-.4-1.6-.9-2.5-1.4-3.5a269 269 0 0 1-.6-10.4c-.4-1.7-.9-2.6-1.4-3.6l-.6-8.5c-.4-1.6-.9-2.5-1.4-3.5-.2-1.3-.5-2.5-.6-4.5-.4-1.6-.9-2.5-1.4-3.5-.2-.6-.5-1.3-.6-2.6-.5-1.5-1-2.4-1.6-3.3 0 0-.4-.3-.3-.8-.4-1.5-1-2.4-1.5-3.3-.2-.6-.5-1.3-.6-2.6-.5-1.5-1-2.4-1.6-3.3 0 0-.4-.3-.3-.8-4.6-5.4-9.1-10.3-13.7-15.2 0 0-.4-.3-.3-.8-.5-1.5-1.1-2.3-1.7-3.2 0 0-.4-.3-.3-.8-.5-1.5-1.1-2.3-1.7-3.2 0 0-.4-.3-.3-.8-.5-1.5-1.1-2.3-1.7-3.2 0 0-.4-.3-.3-.8-.5-1.5-1.1-2.3-1.7-3.2 0 0-.4-.3-.3-.9-.4-1.4-1-2.2-1.4-3 .2-1.1.3-2.2.9-3.7 2.4-1.3 4.3-2.1 6.4-2.7a68.2 68.2 0 0 0 30-18.8c9.7-9.7 20-19 30.2-28.2 5-4.5 10.6-8.4 16.2-12.3 8-5.3 15.6-11.4 24.2-15.3 11.5-5.4 17-14.5 20.6-25.7z"/>
  <path fill="#4157A1" d="M741.8 606.2c-3.4 11.4-8.9 20.5-20.4 25.9-8.6 4-16.3 10-24.2 15.3-5.6 3.9-11.1 7.8-16.2 12.3a662.6 662.6 0 0 0-30.2 28.2 68.2 68.2 0 0 1-30 18.8c-2 .6-4 1.4-6.4 2.3-1.4-1.2-3-2.3-3.4-3.7-2.5-9.6-3.7-19.6-7.2-28.7-5.6-14.5-12-28.6-19.1-42.3-10.7-20.5-22.3-40.6-33.8-60.7-4.5-8-9.6-15.8-14.9-23.5-3.2-4.7-7.3-8.9-10.9-13.4-2-2.6-3.8-5.4-5.6-8.7a282 282 0 0 0 7.4-66.6c-.3-11.5 0-23 0-34.4.2-5.4 1-10.4 7.2-12.8 1.9-.7 3.3-2.7 4.9-4.1 5.6-4.5 11.5-8.5 19.8-7.9 5 4 9.3 8 13.8 11.6 2.8 2.3 6 3.2 8.7-.2 4-4.8 8.2-9.5 11.7-14.6 4-5.8 7.3-12.2 15-13.2 5.7-.8 11.6-.6 17.4-.6.8 0 1.6 1.2 1.4 1-1 4.6-2.5 8.2-2.6 11.8-.6 18 5.8 34.1 13.7 49.7 3.7 7.4 8.7 14 16 18.6 16.2 10 34 9.6 52 7.7.7 4.3 1.7 8.5 2 12.7l2.1 37.2a59.3 59.3 0 0 0 8.5 30.4c2 2.9 3.6 6.8 3.3 10-1.6 18 8 30.3 20 41.9z"/>
  <path fill="#F7B588" d="M706 473.7c-18.1 2.2-35.9 2.6-52.1-7.4a44.9 44.9 0 0 1-16-18.6c-8-15.6-14.3-31.8-13.7-49.7 0-3.6 1.6-7.2 2.6-11.7.2.1-.6-1.1-1.4-1.1-5.8 0-11.7-.2-17.4.6-7.7 1-11 7.4-15 13.2-3.5 5.1-7.7 9.8-11.7 14.6-2.8 3.4-5.9 2.5-8.7.2-4.5-3.7-8.8-7.6-13.4-11.6-.3-2-.4-3.7-.5-5.4 0-6.3 0-12.6-.2-19 0-1.6-.3-3.2-.1-5.2 1.1-.2 2 0 2.7-.2 7.5-1.5 14.9-2.9 22.3-4.5 1.5-.3 3.6-1 4.2-2.2 3-5 6-10.2 7.9-15.7 2.9-8.3 6.7-15.4 14.9-19.6 5.7-3 8.5-3 13.5 1.1 4.2 3.4 8.1 3 10.8-1.7 4-7 4.8-14.3 1.3-21.8-5-11-4.7-12.3 4.1-19.9.7.6 1.7 1 2 1.8 5.3 9.1 8.7 19 9.5 29.4.4 5-2 10.3-2.6 15.5-.4 3.5.2 7.1.4 10.6 10-7.3 19.5-14 28.8-21 1.3-1 2.6-2.8 2.7-4.3a30 30 0 0 1 6.4-17c2.9-4.2 3.4-10 6.4-13.8a131 131 0 0 1 15.7-16.1c5-4.6 8-15.6 6.2-22.2-3.1-11.4-5.3-23-8.7-34.4-4.5-14.8-6.8-30.4-14.1-44.4-6.5-12.5-11.8-25.6-19-37.6a57.8 57.8 0 0 1-7.6-31c.8-6.5-.6-8.5-7.5-11.8-.7-1.2-2.4-2.8-2.1-3.7.8-2.8 2.4-5.5 6.8-5.3l9.6 3-.6-12.5.5-2.5c1-6.8 3.7-8.7 10.5-7.5 1.3.2 3.2-.2 4-1.1 3.5-3.9 7.2-4.4 11.6-1.2.5.3 1 1 1.6.9 6.6-.2 8.6 3.6 8.4 9.5-.1 3.4 2 4.7 5 4.7 3.3 0 3.9 2.2 3.7 4.7-.6 9.3-1 18.5-2 27.7-.4 4.9-2 9.6-3.1 14.4-.3 1.2-.7 2.7-.3 3.7 3.4 7.7 6.7 15.5 10.8 22.8 2.6 4.6 6.6 8.5 9.8 12.9 4 5.2 7.4 10.8 11.6 15.9 11.6 14.1 18 30.9 24.3 47.6 2.7 7.2 4.6 14.6 8.2 21.6 3.6 7.3 0 15.1-4.1 22-4 6.5-7.5 13.3-11.3 19.9-1 2-2 4.1-3.4 6a56.8 56.8 0 0 0-8.5 21.6c-2 8.2-4.3 16.4-7.6 24.2-4.8 11.7-10.4 23-18.9 32.7-5.8 6.5-11 13.6-16 20.7-1.6 2-2.5 4.7-2.9 7.2-.7 4.2-2.2 9-1 12.7 4.2 13 1.9 26.4 2.6 39.6.4 6.4.3 12.9.2 19.7zM539 409.7c-1.6 1.8-3 3.8-4.9 4.5-6.1 2.4-7 7.4-7.1 12.8-.2 11.5-.4 23-.1 34.4.6 22.3-2.7 44.2-7.5 66.3-2-.6-4.3-1.1-5.2-2.5a807.4 807.4 0 0 1-15.4-26.2 34.5 34.5 0 0 1-3.6-8c-1.4-5.6-3-6.7-8.2-4.7-18.6 7.2-37.8 12-57.9 10.4-7.3-.5-14.4-2.8-21.6-4.3-2.3-.4-4.6-.7-7-.8-12.8-.6-25.7-1.8-38.6-1.6-11.2.2-15.6-3-16.9-14.2-.4-3.5-1.7-7-3-10.4-4.2-11.8-8.8-23.5-12.9-35.3-4.7-13.5-2.3-27.5-2.1-41.3 0-5.1.4-10.3 0-15.4-.4-3.4-1-7.3-3-9.7-4.4-5.4-2.7-11.6-3.8-17.4-.4-2-1.2-3.7-2-6.2-.3-.9-.2-1.3-.4-1.5-6.8-10.5-13.7-20.8-15.7-33.8a63.6 63.6 0 0 1 1-24.9c2.4-1.6 4.9-3.2 8-5l10.7-.8c2.5-.2 5-.7 6.2 2.5 1 2.5 2.1 4.9 3.5 7 3.6 5.5 6.6 11.7 11.2 16 5 4.7 11 4.5 12.1-.7 1-4.5 1-9.2 2.3-13.6.6-2.3 3-4.2 4.5-6.2 1.5 2.3 3.4 4.5 4.2 7 .5 1.7-.7 3.9-.8 5.8-.4 8-.5 16.2-1 24.2-.3 3.8-1.3 7.6-2 11.4-7 7.7-5.5 17-4.7 26 .6 6.9 2.2 13.7 3.9 20.3 1.7 6.6 3.8 13.2 6.3 19.5 3.4 8 7.5 15.8 11 23.8 2.5 5.7 4.4 11.7 6.6 17.5 2.5 6.4 7.4 8.6 14 6.5 6.6-2 13-4.7 19.8-6 6.8-1.4 13.8-1.9 20.7-2.1 8-.3 15-2 22.1-6.6 16-10.3 32.7-20 52.3-22 7.3-.6 14.8 1 22.1 2 1 0 1.9 1.9 2.8 3.3z"/>
  <path fill="#F6B78B" d="M881.4 601.9c2-5.2 3.7-10.5 6.6-15a17 17 0 0 0 1.7-16.4 48.3 48.3 0 0 0-28.8-29.8l-20.6-7.4c.7-2 1.3-4.1 2.7-5.2 8-6.3 16.1-12.2 23.2-20 8.1-8.7 17.9-17.2 30-19.5 10.5-2 22-2.3 31.6 3.4 4.5 2.7 8.6 8.8 9.6 14 2.3 11.3 2.3 23 3.6 34.5 1.1 9.5 2.8 19 4.3 28.4 1.5 9.4 4.5 18.8 4.3 28.2-.3 12.6.7 25.4-3.6 38a118.6 118.6 0 0 0-5.9 49c.7 7.3-.6 15.5 5.4 21.7.7.6.3 2.2.3 4-5.3 8.8-10.2 17-15.7 24.8-6.9 10-11.7 10.7-22 4.4-3-1.8-6.3-3.2-9.4-4.8 0-6.6.8-13.2.2-19.8-1-13.4-2.7-26.8-4.2-40.2l-2.6-19c-1-6.5-1.8-13-3.1-19.5-2.3-11.2-4.9-22.3-7.6-33.8z"/>
  <path fill="#F3B589" d="M677.4 912.4c.6 0 1.1.5 1.8 1.4.7.8 1.2 1 1.8 1.3v.2c.6.5 1.1.7 1.7 1l.3.3c1.2.2 2 .2 3 .2h7.8c1.2-.3 1.7-.7 2.1-1.1.4 0 .9-.2 1.7-.1.7 0 1-.3 1.4-.5 6.2-4 13-7.4 18.4-12.2 7.4-6.4 13.7-13.9 20.8-21 1.1 3.3 2.5 6.5 2.7 9.8.6 11.6.9 23.2 1 34.8.3 15-3.3 29.4-6.5 43.8-3.3 14.5-3.9 29-2.7 43.8 1 13.5 1.2 27.1.3 40.6-1.2 17-4.8 34-5.7 51-.7 13 2.3 25.8 7 38 2.6 6.6 5.2 13.2 7.3 19.9.8 2.5.2 5.6-.3 8.9-2.6 2.1-4.8 3.6-6.6 5.5-3.2 3.3-6.1 3.5-9.3.2-3-3-6.2-5.7-8.9-8.9-4.5-5.2-9.8-5.3-15.7-3.3-1.3-8-2-16.2-3.8-24.2-2.2-9.7-5.4-19.2-7.8-28.9-2-8.3-3.3-16.9-5.3-25.3-1.9-7.7-4.5-15.3-6.5-23-1.6-6.6-2.6-13.5-4.4-20.1a97 97 0 0 1-1-37.9c1.6-12 4.7-24 5.7-36 .9-10-.3-20.2-.5-30.3 0-9.2 0-18.4.2-28z"/>
  <path fill="#342928" d="M639.8 288c-8.5 7.7-8.7 9-3.8 20a22.8 22.8 0 0 1-1.3 21.8c-2.7 4.7-6.6 5.1-10.8 1.7-5-4-7.8-4-13.5-1-8.2 4.1-12 11.2-15 19.5-1.8 5.5-4.9 10.6-7.8 15.7-.6 1.2-2.7 1.9-4.2 2.2-7.4 1.6-14.8 3-22.3 4.5-.7.1-1.6 0-2.7-.2-4.6-6.7-9-13.3-13.1-20-10.4-17-15.2-35.2-5.3-53.3a62 62 0 0 1 53.3-34 50.6 50.6 0 0 1 39.6 14.2c2.5 2.5 4.4 5.8 6.9 8.9z"/>
  <path fill="#3B3F7A" d="M898.5 734.6c3.3 1.2 6.6 2.6 9.6 4.4 10.3 6.3 15.1 5.6 22-4.4 5.5-7.8 10.4-16 15.7-24.3 1.5.4 2.9 1 4 1.8 14.5 11.5 30 20 49.5 18 5.2-.5 10.8-.2 15.8 1.2 4.2 1.1 8.7 3.7 11.4 7 5.4 6.5 2.7 15-5.2 17.6-11.8 3.8-23.8 7-35.7 10-3.5 1-7.3 1.3-10.9 1-13.4-1-25.9 2.4-38.3 7.2-4.3 1.7-9.2 2-14.7 3-2.8-.2-4.8-.3-7-.7-6.5.5-11.4-1.8-15.2-6.7-.5-.6-1.8-.7-2.7-1-3-8.9-2.5-17.8-.4-26.7.5-2.4 1.3-4.7 2.1-7.4z"/>
  <path fill="#3E407E" d="M700.8 1166.5c5.9-2.5 11.2-2.4 15.7 2.8 2.7 3.2 6 5.8 8.9 8.9 3.2 3.3 6.1 3 9.3-.2 1.8-1.9 4-3.4 6.3-5.2 1.7.9 3.6 1.6 4.7 2.9 7.6 8.8 14.6 18.2 22.7 26.6 2.8 3 8.1 3.7 12.4 5.3 5 2 7.6 5.3 6.9 11.2l-8.3 9.4-6.3 7.8c-9 5.2-18.5 4-27.5 1.7-13-3.3-25.5-8-38.2-12-1-.2-2-.7-2.9-.6-6.8.8-10.7-5.2-11.3-10.8-.9-8.1 0-16 3.7-23.7a45.1 45.1 0 0 0 4-24.1z"/>
  <path fill="#8105F5" d="M932.2 261.2c5-.4 9 .5 11.7 4.7 4.2 6.5 3.3 11.4-3.5 15.2-9 5-10 9.6-2.1 16.3 5.2 4.6 11.9 7.6 18 11.2 1.5 1 3.4 1.4 4.9 2.4 3.2 2.1 3.4 5.6.3 7.8-8 5.7-16.5 10.5-26.9 10-9-.3-18.4 1.5-27-3.1-15.7-8.5-20.8-20-13.4-35.1 4.8-9.8 12-17.8 22.5-22.4 5-2.2 10-4.7 15.5-7z"/>
  <path fill="#FEAD36" d="M896.8 769c.9 0 2.2 0 2.7.7 3.8 5 8.7 7.2 14.8 6.8-1.5.5-3 .6-4.4.7v.6l11.8 1.4 12.2 18.6c5.8 8.8 3.6 15-5.3 20.3a34.8 34.8 0 0 1-30.5 2.3c-4.4-1.5-10-1-14.6 0a24 24 0 0 1-27-12.6c-3.3-7.1 0-15.1 7.4-19.4 5.2-3 9.8-7 15-10 5-3 10.5-4.9 15.7-7.3.8-.4 1.5-1.1 2.2-2z"/>
  <path fill="#FFBD37" d="M362.4 327.7c.3-4 1.3-7.8 1.5-11.6.6-8 .7-16.1 1.1-24.2.1-2 1.3-4.1.8-5.8-.8-2.5-2.7-4.7-4.2-7-1.6 2-3.9 3.9-4.5 6.2-1.2 4.4-1.3 9.1-2.3 13.6-1.1 5.2-7.1 5.4-12 .7-4.7-4.3-7.7-10.5-11.3-16a37.1 37.1 0 0 1-3.5-7c-1.2-3.2-3.7-2.7-6.2-2.5l-10.3.8c.2-.8.7-1.8 1.5-2.4a145.6 145.6 0 0 1 36-21.2c14.4-5.2 24.4-2 32.2 11.2a58.8 58.8 0 0 1 8.7 43.1c-1 4.8-3.1 9-7.8 11.5l-19.7 10.6z"/>
  <path fill="#7706F3" d="M372 807.1c2.7-1 5.3-1.6 7.4-3.1 4.3-3.2 9.3-4 13.3-1.4 4.4 2.8 5.9 7.4 5 12.8-1.3 6.8-1.8 13.7-2.9 20.6a15 15 0 0 1-2.3 6.9c-1.2 1.4-4.2 3-5.7 2.4-5.5-1.9-11-4.3-16.2-7-4.2-2.3-6.5-6-8-10.9-1.5-5.5-5-10.5-7.4-15.9-.7-1.6-1.5-4-.8-5.2.6-1.1 3.3-1.7 5-1.5 4 .5 8 1.5 12.5 2.3z"/>
  <path fill="#AA07F7" d="M976.7 1151.8c-5.3 5.4-8 5-11.7-1.1-5.4-9.4-10.8-18.8-16-28.3a17 17 0 0 1-1.6-4.2c-.9-3.3-.2-5 4-5.2 7-.2 14.1-1.5 21.2-1.8 7.2-.3 12 5 12.3 12a52 52 0 0 1-8.2 28.6z"/>
  <path fill="#FFBD37" d="M303 279.6a69 69 0 0 0-1 25.2c2.1 13 9 23.3 15.8 33.8.2.2 0 .6 0 1.2-16.4.7-25.5-9.6-32.8-22.3-2.2-3.9-3.5-8.4-4.7-12.8-2-7.2.6-13.5 7-17.2a186 186 0 0 1 15.6-7.9z"/>
  <path fill="#FEAD36" d="M773.4 1236.1c1.8-2.7 3.9-5.3 6-7.9 2.6-3 5.3-6 8.3-9 2.5 0 4.8-.2 7 0 3.6.2 5.1 1.8 3.7 5.5a91 91 0 0 0-3 9.4 10 10 0 0 1-16 5.4c-1.7-1.3-3.8-2.2-6-3.4z"/>
  <path fill="#AA07F7" d="M658.4 92c7.2 3 8.6 5.1 7.8 11.1-1.8.8-3.5 1.9-4.9 1.6-1.7-.4-4.3-1.9-4.4-3-.2-3.2.7-6.4 1.5-9.7zM672 73.3c.6 3.7.7 7.4 1 12.4l-9.2-3c.7-7.3 2.2-9 8.3-9.4z"/>
  <path fill="#4157A1" d="M623.2 733.4c4.6 4.5 9.1 9.4 13.5 14.6-4.6-4.6-9.1-9.4-13.5-14.6z"/>
  <path fill="#F6B78B" d="M921.7 778.8c-4 0-7.9-.5-11.8-1v-.6c1.4 0 2.9-.2 4.7-.4 2.3 0 4.3.1 6.6.3.4.5.5 1 .5 1.7z"/>
  <path fill="#4157A1" d="M675.3 901.3c1 2.8 1.7 6 2.4 9.4-1-2.8-1.8-5.9-2.4-9.4z"/>
  <path fill="#F3B589" d="M760.5 856c-1.1-1.1-2-2.5-2.7-4.2 1 1.1 2 2.5 2.7 4.1z"/>
  <path fill="#4157A1" d="M641.1 759.3c.7.6 1.2 1.5 1.6 2.7a5.8 5.8 0 0 1-1.6-2.7zM613.3 713.3a5 5 0 0 1 1.5 2.6 5 5 0 0 1-1.5-2.6zM615.1 717.3c.7.6 1.3 1.4 1.7 2.7a5.7 5.7 0 0 1-1.7-2.7zM617.1 721.3c.7.6 1.3 1.4 1.7 2.7a5.7 5.7 0 0 1-1.7-2.7zM619.1 725.3c.7.6 1.3 1.4 1.7 2.7a5.7 5.7 0 0 1-1.7-2.7zM673.3 889.2c.6.7 1.1 1.6 1.4 2.8-.6-.6-1-1.5-1.4-2.8zM671.3 883.2c.6.7 1.1 1.6 1.4 2.8-.6-.6-1-1.5-1.4-2.8zM621.1 729.3c.7.6 1.3 1.4 1.7 2.7a5.7 5.7 0 0 1-1.7-2.7zM669.3 877.2c.6.7 1.1 1.6 1.4 2.8-.6-.6-1-1.5-1.4-2.8zM667.1 869.3c.7.6 1.2 1.5 1.6 2.7a5.8 5.8 0 0 1-1.6-2.7zM665.3 865.2c.6.6 1.2 1.5 1.5 2.8a5.7 5.7 0 0 1-1.5-2.8z"/>
  <path fill="#F3B589" d="M759.3 860.7c-.1-1 .1-2 .7-2.9 0 1-.2 2-.7 2.9z"/>
  <path fill="#4157A1" d="M653.3 819.2c.6.7 1.1 1.6 1.4 2.8-.6-.6-1-1.5-1.4-2.8zM639.3 755.2c.6.6 1.2 1.5 1.5 2.8a5.7 5.7 0 0 1-1.5-2.8zM643.3 765.2c.6.7 1.1 1.6 1.4 2.8-.6-.6-1-1.5-1.4-2.8zM637.1 749.3c.7.6 1.2 1.5 1.6 2.7a5.8 5.8 0 0 1-1.6-2.7zM645.3 773.2c.6.7 1.1 1.6 1.4 2.8-.6-.6-1-1.5-1.4-2.8zM647.3 785.2c.6.7 1.1 1.6 1.4 2.8-.6-.6-1-1.5-1.4-2.8zM649.3 799.2c.6.7 1.1 1.6 1.4 2.8-.6-.6-1-1.5-1.4-2.8zM651.3 811.2c.6.7 1.1 1.6 1.4 2.8-.6-.6-1-1.5-1.4-2.8zM663.3 857.2c.6.7 1.1 1.6 1.4 2.8-.6-.6-1-1.5-1.4-2.8zM655.3 825.2c.6.7 1.1 1.6 1.4 2.8-.6-.6-1-1.5-1.4-2.8zM657.3 833.2c.6.7 1.1 1.6 1.4 2.8-.6-.6-1-1.5-1.4-2.8zM659.3 843.2c.6.6 1.2 1.5 1.5 2.8a5.7 5.7 0 0 1-1.5-2.8zM661.1 847.3c.7.6 1.2 1.5 1.6 2.7a5.8 5.8 0 0 1-1.6-2.7z"/>
  <path fill="#F3B589" d="M745.2 874.7c0-.7.4-1.3 1-1.9 0 .8-.3 1.4-1 1.9zM743.2 876.7c0-.7.4-1.4 1-1.9 0 .8-.3 1.4-1 1.9zM747.2 872.7c0-.7.4-1.3 1-1.9 0 .8-.3 1.4-1 1.9zM749.2 870.7c0-.7.4-1.3 1-1.9 0 .8-.3 1.4-1 1.9zM751.2 868.7c0-.7.4-1.3 1-1.9 0 .8-.3 1.4-1 1.9zM753.2 866.7c0-.7.4-1.3 1-1.9 0 .8-.3 1.4-1 1.9zM755.2 864.7c0-.7.4-1.4 1-1.9 0 .7-.3 1.4-1 1.9zM757.2 862.7c0-.7.4-1.4 1-1.9 0 .7-.3 1.4-1 1.9z"/>
  <path fill="#4157A1" d="M685.7 916.6c-.6.2-1.5.2-2.6 0 .6-.3 1.5-.2 2.6 0zM681 914.8c-.6 0-1.1-.2-1.6-.8.5-.1 1 .2 1.5.8zM682.7 916c-.6 0-1-.2-1.7-.7.5 0 1 .1 1.7.6zM695.6 915.7c-.1.4-.6.8-1.3 1.1.1-.4.6-.8 1.3-1.1zM698.7 915c0 .3-.4.5-1 .5.1-.3.4-.4 1-.5z"/>
</svg>
